<svg version="1.1" xmlns="http://www.w3.org/2000/svg" viewBox="0 0 1411.6664886474605 1024.7540599278032" width="4234.999465942381" height="3074.2621797834095">
  <!-- svg-source:excalidraw -->
  
  <defs>
    <style>
      @font-face {
        font-family: "Virgil";
        src: url("https://excalidraw.com/Virgil.woff2");
      }
      @font-face {
        font-family: "Cascadia";
        src: url("https://excalidraw.com/Cascadia.woff2");
      }
    </style>
  </defs>
  <rect x="0" y="0" width="1411.6664886474605" height="1024.7540599278032" fill="#ffffff"></rect><g stroke-opacity="0.3" fill-opacity="0.3" stroke-linecap="round" transform="translate(10 191.4208537510458) rotate(0 695.8332443237302 411.66660308837874)"><path d="M-0.68 -2.64 L1389.01 -3.12 L1392.72 823.6 L0.26 823.41" stroke="none" stroke-width="0" fill="#ced4da"></path><path d="M-0.66 -0.76 C400.97 -8.98, 800.15 -9.14, 1391.98 1.38 M0.4 0.62 C401.46 3.76, 801.57 3.97, 1392.43 -0.67 M1391.42 1.05 C1393.78 238.45, 1393.44 474.12, 1392.83 821.88 M1392.22 0.31 C1395.07 267.2, 1395.3 534.04, 1391.58 823.78 M1392.85 824.93 C926.78 824.42, 459.4 824.4, 0.27 823.42 M1391.57 822.96 C932.12 815.4, 473 815.26, -0.38 823.77 M0.34 823.87 C3.51 498.39, 4.38 175.95, 0.84 1.31 M-0.02 822.84 C0.57 496.41, 0.94 168.35, -0.67 0.49" stroke="#000000" stroke-width="1" fill="none"></path></g><g stroke-opacity="0.5" fill-opacity="0.5" stroke-linecap="round" transform="translate(274.16670481363894 294.7540853591189) rotate(0 547.4999618530271 246.6666412353514)"><path d="M-2.25 0.2 L1092.26 2.91 L1092.82 489.53 L2.1 491.09" stroke="none" stroke-width="0" fill="#ced4da"></path><path d="M0.23 -1.56 C319.54 -6.79, 640.52 -6.31, 1096.31 1.26 M0.37 0.62 C412.94 -2.02, 826.77 -2.07, 1095.74 -0.41 M1095.67 0.45 C1093.96 192.61, 1092.38 388.02, 1093.91 494.78 M1095.58 0.18 C1095.25 114.24, 1095.94 228.55, 1095.62 492.82 M1094.04 494.93 C688.42 499.39, 281.14 499.43, 1.55 492.34 M1094.64 493.72 C790.99 493.33, 488.11 493.85, -0.57 492.74 M-0.98 493.57 C-2.12 340.12, -3.96 187.95, -1.59 -0.82 M-0.76 492.57 C2.26 373.94, 1.97 254.92, -0.81 -0.06" stroke="#000000" stroke-width="1" fill="none"></path></g><g stroke-linecap="round" transform="translate(349.04976775154216 356.8174960424027) rotate(0 358.1111551920573 23)"><path d="M0.34 1.16 L715.69 -1.33 L714.45 44.72 L1.87 44.08" stroke="none" stroke-width="0" fill="#82c91e"></path><path d="M0.74 0.12 C204.43 0.24, 408.13 1, 715.69 0.74 M0.25 0.13 C241.63 0.58, 483.58 0.82, 716.58 0.03 M715.99 -1.11 C715.1 15.9, 717.34 33.06, 718.11 46.59 M716.31 -0.61 C716.68 8.87, 715.59 19.87, 716.16 46.56 M716.92 46.21 C438.49 43.21, 159.21 43, -0.24 46.11 M715.92 46.36 C557.51 47.74, 398.71 48.07, -0.33 45.96 M1.31 47.14 C-0.71 32.8, 0.36 19.58, 1.88 -0.55 M0.88 46.19 C-1.23 32.69, -1.28 17.56, 0.54 0.89" stroke="#5c940d" stroke-width="1" fill="none"></path></g><g transform="translate(684.6609229435994 367.3174960424027) rotate(0 22.5 12.5)"><text x="22.5" y="18" font-family="Virgil, Segoe UI Emoji" font-size="20px" fill="#000000" text-anchor="middle" style="white-space: pre;" direction="ltr">nginx</text></g><g stroke-linecap="round" transform="translate(864.0866567218113 479.0396758790997) rotate(0 100.33334350585938 23)"><path d="M-1.28 -0.41 L198.67 1.29 L199.75 45.94 L0.23 47.46" stroke="none" stroke-width="0" fill="#4c6ef5"></path><path d="M-0.21 1.21 C61.34 -0.17, 124.65 0.62, 199.43 -1.15 M0.89 -0.4 C40.27 1.94, 81.35 2.57, 201.28 -0.23 M198.95 -0.34 C200.8 19.49, 202.23 35.28, 199.79 45.22 M201.41 0 C201.39 15.29, 199.96 32.74, 200.65 45.95 M201.07 46.6 C151.46 46.73, 101.76 44.72, 0.85 45.86 M200.37 45.84 C130.96 45.85, 59.54 45.09, 0.76 45.15 M-0.37 47.93 C-2.38 33.16, -0.17 22.4, -1 -1.73 M-0.02 46.67 C1.31 30.11, 0.13 13.72, -0.49 0.32" stroke="#364fc7" stroke-width="1" fill="none"></path></g><g transform="translate(885.9200002276707 489.5396758790997) rotate(0 78.5 12.5)"><text x="78.5" y="18" font-family="Virgil, Segoe UI Emoji" font-size="20px" fill="#ffffff" text-anchor="middle" style="white-space: pre;" direction="ltr">wordpress + php</text></g><g stroke-linecap="round" transform="translate(865.345988319033 596.8174875652976) rotate(0 100.33334350585938 23)"><path d="M-0.75 0.31 L200.6 -1.34 L199.52 44.4 L1.83 46.76" stroke="none" stroke-width="0" fill="#fa5252"></path><path d="M1.57 0.58 C47.72 1.19, 97.53 0.15, 200.82 1.49 M-0.47 -0.87 C53.51 -0.23, 108.67 -0.95, 201.1 -0.18 M201.6 1.87 C200.83 11.81, 200.2 27.08, 199.57 46.82 M201.22 0.63 C201.45 17.43, 200.96 34.5, 201.12 46.26 M202 45.66 C145.03 43.21, 85.88 45.33, 0.03 46.56 M200.88 45.22 C148.55 44.67, 96.3 44.83, -0.35 45.49 M-0.77 46.57 C1.56 35.9, -0.6 21.89, -1.46 0.28 M-0.37 45.02 C0.23 28.45, 0.73 8.8, -0.76 0.26" stroke="#c92a2a" stroke-width="1" fill="none"></path></g><g transform="translate(942.1793318248924 607.3174875652976) rotate(0 23.5 12.5)"><text x="23.5" y="18" font-family="Virgil, Segoe UI Emoji" font-size="20px" fill="#ffffff" text-anchor="middle" style="white-space: pre;" direction="ltr">redis</text></g><g stroke-linecap="round" transform="translate(350.3726199922106 479.27774810790993) rotate(0 100.33334350585938 23)"><path d="M-0.9 1.08 L201.32 1.36 L198.71 44.9 L-1.98 45.48" stroke="none" stroke-width="0" fill="#4c6ef5"></path><path d="M-0.25 0.46 C42.89 1.01, 86.79 0.58, 200.86 1.05 M-0.12 -0.49 C77.41 0.13, 155.33 -0.38, 199.79 -0.69 M200.72 -1.99 C200.88 16.05, 201.53 30.21, 201.69 47.11 M200.13 0.55 C200.2 18.85, 200.96 36.96, 199.77 46.27 M200.58 47.42 C159.16 46.47, 116.28 45.72, 1.1 44.26 M201.17 46.11 C154.27 45.6, 105.74 44.26, -0.31 45.38 M1.5 44.49 C1.13 30.79, -0.24 12.35, -1.7 -0.6 M0.82 45.43 C-1.07 30.04, -0.52 14.05, 0.28 1" stroke="#364fc7" stroke-width="1" fill="none"></path></g><g stroke-linecap="round" transform="translate(614.4838667370027 479.277773539225) rotate(0 100.33334350585938 23)"><path d="M-1.42 -1.25 L201.18 -1.71 L201.16 44.54 L-1.91 45.87" stroke="none" stroke-width="0" fill="#4c6ef5"></path><path d="M-1.44 -0.09 C70.49 0.57, 145.43 -1.59, 198.91 -0.32 M-0.69 -0.77 C41.1 -0.4, 81.75 0.63, 200.38 0.45 M199.21 1.91 C199.68 15.59, 199.64 33.46, 202.2 46.19 M200.23 0.25 C201.22 12.78, 199.93 24.87, 200.52 45.26 M201.33 46.68 C125.8 46.41, 52.07 47.14, 0 46.02 M200.51 46.35 C125.78 43.77, 51.9 44.1, 0.1 45.83 M-1.15 45.81 C0.37 38.15, 0.24 27.96, 0.92 -0.47 M0.6 45.23 C0.62 36.4, -0.72 26.27, -0.33 0.86" stroke="#364fc7" stroke-width="1" fill="none"></path></g><g transform="translate(395.70596349807 489.77774810790993) rotate(0 55 12.5)"><text x="55" y="18" font-family="Virgil, Segoe UI Emoji" font-size="20px" fill="#ffffff" text-anchor="middle" style="white-space: pre;" direction="ltr">static site</text></g><g stroke-linecap="round" transform="translate(51.5951643444248 86.49993133544905) rotate(0 100.33334350585938 23)"><path d="M10.14 -0.23 L193.34 1.34 L194.29 1.41 L199.48 5.43 L202.36 37.59 L198.98 44.68 L189.38 46.85 L7.88 44.74 L0.95 42.97 L1.15 39.95 L-0.99 10.91 L1.98 1.65 L12.68 0.95" stroke="none" stroke-width="0" fill="#ced4da"></path><path d="M11.5 0 M11.5 0 C62.59 -0.21, 112.95 -2.14, 189.17 0 M11.5 0 C69.86 -1.64, 128.04 -0.06, 189.17 0 M189.17 0 C198.61 1.46, 202.14 4.99, 200.67 11.5 M189.17 0 C195.36 0.36, 198.7 4.93, 200.67 11.5 M200.67 11.5 C201.93 21.14, 199.86 26.29, 200.67 34.5 M200.67 11.5 C199.63 20.97, 200.32 29.37, 200.67 34.5 M200.67 34.5 C198.87 41.03, 196.27 44.38, 189.17 46 M200.67 34.5 C202.23 42.15, 198.9 46.57, 189.17 46 M189.17 46 C128.07 47.29, 66.67 45.45, 11.5 46 M189.17 46 C130.37 44.79, 69.89 44.34, 11.5 46 M11.5 46 C4.5 47.03, -0.78 43.17, 0 34.5 M11.5 46 C4.93 47.09, 1.72 41.9, 0 34.5 M0 34.5 C1.71 24.92, -1.66 19.23, 0 11.5 M0 34.5 C0.11 28.96, 0.03 21.74, 0 11.5 M0 11.5 C-1.11 3.03, 4.5 -0.98, 11.5 0 M0 11.5 C-0.33 3.52, 1.78 1.77, 11.5 0" stroke="#000000" stroke-width="1" fill="none"></path></g><g transform="translate(100.92850785028418 98.66661071777327) rotate(0 51 12.5)"><text x="51" y="18" font-family="Virgil, Segoe UI Emoji" font-size="20px" fill="#000000" text-anchor="middle" style="white-space: pre;" direction="ltr">ftp server</text></g><g transform="translate(678.8172102428621 489.777773539225) rotate(0 36 12.5)"><text x="36" y="18" font-family="Virgil, Segoe UI Emoji" font-size="20px" fill="#ffffff" text-anchor="middle" style="white-space: pre;" direction="ltr">adminer</text></g><g stroke-linecap="round" transform="translate(1142.928813026064 353.16652679443325) rotate(0 100.33334350585938 23)"><path d="M0.02 -1.46 L202.65 -1.71 L198.82 45.2 L-1.78 46.19" stroke="none" stroke-width="0" fill="#82c91e"></path><path d="M1.48 1.24 C53.63 1.48, 104.42 -0.05, 199.08 -0.16 M0.11 0.65 C73.07 1.81, 144.45 1.43, 200.11 -0.1 M201.15 1.38 C199.7 11.62, 200.51 21.04, 199.78 44.64 M201.21 -0.48 C201.8 10.11, 200.49 19.99, 201.37 45.33 M201.74 44.56 C145.99 45, 91.36 43.96, 1.76 47.64 M200.33 45.39 C123.55 45.83, 45.21 44.92, 0 45.69 M-0.85 44.15 C0.7 35.12, 1.67 23.96, 1.65 -1.07 M-0.58 46.22 C0.78 30.97, 0.09 15.96, -0.89 0.47" stroke="#5c940d" stroke-width="1" fill="none"></path></g><g stroke-linecap="round" transform="translate(349.26224808465804 86.1665954589842) rotate(0 358.3333435058593 25.000015258789062)"><path d="M11.02 1.29 L704.62 -0.24 L712.75 2.48 L714.21 7.23 L718.18 39.37 L713.03 46.73 L702.56 51.41 L11.36 51.73 L4.34 45.53 L-1.25 36.94 L-0.26 6.55 L5.69 2.98 L12.46 0.56" stroke="none" stroke-width="0" fill="#ced4da"></path><path d="M12.5 0 M12.5 0 C153.6 -0.37, 293.57 -0.73, 704.17 0 M12.5 0 C168.59 -0.75, 324.01 -0.73, 704.17 0 M704.17 0 C714.38 1.43, 714.86 3.55, 716.67 12.5 M704.17 0 C710.96 -0.55, 718.12 6.06, 716.67 12.5 M716.67 12.5 C715.86 20.63, 715.19 27.82, 716.67 37.5 M716.67 12.5 C716.15 21.26, 717.45 30.7, 716.67 37.5 M716.67 37.5 C717.05 46.61, 713.24 49.21, 704.17 50 M716.67 37.5 C718.42 48.1, 710.54 51.64, 704.17 50 M704.17 50 C493.63 48.71, 284.45 48.84, 12.5 50 M704.17 50 C523.07 49.56, 342.14 49.92, 12.5 50 M12.5 50 C3.45 51.83, 1.86 44.02, 0 37.5 M12.5 50 C2.64 48.71, -2.19 47.66, 0 37.5 M0 37.5 C-1.63 29.88, -1.51 23.4, 0 12.5 M0 37.5 C0.7 31.35, 0.53 25.81, 0 12.5 M0 12.5 C-1.35 2.36, 5.32 -0.45, 12.5 0 M0 12.5 C1.11 3.43, 2.48 1.54, 12.5 0" stroke="#000000" stroke-width="1" fill="none"></path></g><g transform="translate(691.2622786022359 98.66661071777327) rotate(0 19 12.5)"><text x="19" y="18" font-family="Virgil, Segoe UI Emoji" font-size="20px" fill="#000000" text-anchor="middle" style="white-space: pre;" direction="ltr">www</text></g><g transform="translate(1218.2621565319234 363.66652679443325) rotate(0 25 12.5)"><text x="25" y="18" font-family="Virgil, Segoe UI Emoji" font-size="20px" fill="#000000" text-anchor="middle" style="white-space: pre;" direction="ltr">ngrok</text></g><g stroke-linecap="round" transform="translate(610.5872874184251 881.0476305522611) rotate(0 100.33334350585935 23)"><path d="M11.47 1.62 L190.58 0.62 L196.37 3.45 L199.37 7.38 L199.34 38.18 L196.89 41.96 L190.85 47.93 L8.61 47.56 L3.94 42.03 L-1.06 40.07 L-0.04 12.99 L4.52 4.42 L11.51 -1.31" stroke="none" stroke-width="0" fill="#12b886"></path><path d="M11.5 0 M11.5 0 C63.64 0.57, 118.25 -2.15, 189.17 0 M11.5 0 C78.98 -0.16, 147.58 0.39, 189.17 0 M189.17 0 C196.67 -0.8, 201.91 3.68, 200.67 11.5 M189.17 0 C198.8 -2.06, 199.6 2.81, 200.67 11.5 M200.67 11.5 C199.84 19.53, 199.63 28.81, 200.67 34.5 M200.67 11.5 C199.96 20.59, 201.8 27.21, 200.67 34.5 M200.67 34.5 C199.52 43.41, 196.54 44.22, 189.17 46 M200.67 34.5 C198.5 40.8, 198.79 48.17, 189.17 46 M189.17 46 C146.01 45.1, 103.48 48.15, 11.5 46 M189.17 46 C146.49 47.66, 103.09 47.52, 11.5 46 M11.5 46 C4.85 47.91, -0.79 40.79, 0 34.5 M11.5 46 C5.05 45.82, 0.84 44.22, 0 34.5 M0 34.5 C1.35 29.07, 0.1 23.21, 0 11.5 M0 34.5 C0.25 27.2, 0.57 21.16, 0 11.5 M0 11.5 C1.08 4.87, 3.22 0.87, 11.5 0 M0 11.5 C-0.81 4.86, 1.86 2.19, 11.5 0" stroke="#087f5b" stroke-width="1" fill="none"></path></g><g stroke-linecap="round" transform="translate(1141.9291182018453 88.16661071777327) rotate(0 100.33334350585938 23)"><path d="M10.02 0.35 L191.85 -1.15 L195.16 1.05 L201.33 8 L201.73 36.47 L197.31 42.86 L188.01 45.9 L7.07 45.83 L2.85 43.86 L0.83 40 L-0.56 12.07 L1.04 1.47 L10.16 1.56" stroke="none" stroke-width="0" fill="#ced4da"></path><path d="M11.5 0 M11.5 0 C67.7 -0.98, 119.97 -2.29, 189.17 0 M11.5 0 C70.2 -0.37, 127.76 -0.6, 189.17 0 M189.17 0 C198.37 -1.39, 199.15 1.88, 200.67 11.5 M189.17 0 C197.8 0.04, 200.97 1.73, 200.67 11.5 M200.67 11.5 C201.28 19.51, 200.27 22.84, 200.67 34.5 M200.67 11.5 C201.71 15.98, 200.65 21.05, 200.67 34.5 M200.67 34.5 C201.52 43.53, 197.32 47.11, 189.17 46 M200.67 34.5 C202.55 42.8, 194.56 44.97, 189.17 46 M189.17 46 C128.49 48.56, 69.03 48.62, 11.5 46 M189.17 46 C133.41 44.47, 77.26 44.06, 11.5 46 M11.5 46 C5.04 46.42, 0.98 44.12, 0 34.5 M11.5 46 C4.66 46.68, 1.1 43.13, 0 34.5 M0 34.5 C1.23 26.81, -0.95 15.77, 0 11.5 M0 34.5 C-0.59 26.96, -0.23 19.21, 0 11.5 M0 11.5 C-0.45 3.12, 3.85 1.84, 11.5 0 M0 11.5 C1.73 2.62, 3.96 -0.67, 11.5 0" stroke="#000000" stroke-width="1" fill="none"></path></g><g transform="translate(1199.7624617077047 98.66661071777327) rotate(0 42.5 12.5)"><text x="42.5" y="18" font-family="Virgil, Segoe UI Emoji" font-size="20px" fill="#000000" text-anchor="middle" style="white-space: pre;" direction="ltr">ngrok url</text></g><g transform="translate(624.087256900847 891.5476305522611) rotate(0 85.5 12.5)"><text x="85.5" y="18" font-family="Virgil, Segoe UI Emoji" font-size="20px" fill="#000000" text-anchor="middle" style="white-space: pre;" direction="ltr">/var/www/adminer</text></g><g stroke-linecap="round" transform="translate(351.539876665387 881.2857027810713) rotate(0 100.33334350585938 23)"><path d="M10.22 0.44 L192.06 2.01 L195.6 2.53 L198.8 7.46 L199.59 36.03 L199.48 45.06 L188.97 47.74 L9.86 44.72 L1.09 43.67 L0.68 41.02 L1.64 13.04 L2.89 1.56 L11.5 -1.6" stroke="none" stroke-width="0" fill="#12b886"></path><path d="M11.5 0 M11.5 0 C77.79 -2.51, 145.45 -3.28, 189.17 0 M11.5 0 C57.57 1.21, 104.2 1.11, 189.17 0 M189.17 0 C198.07 -0.15, 202.38 2.05, 200.67 11.5 M189.17 0 C195.77 -1.02, 202.45 4.5, 200.67 11.5 M200.67 11.5 C199.46 16.66, 201.68 23.64, 200.67 34.5 M200.67 11.5 C201.39 19.05, 199.89 28.55, 200.67 34.5 M200.67 34.5 C200.37 40.39, 194.95 44.81, 189.17 46 M200.67 34.5 C202.63 44.34, 195.41 47.51, 189.17 46 M189.17 46 C126.05 45.71, 63.96 45, 11.5 46 M189.17 46 C125.75 47.59, 62.39 48.06, 11.5 46 M11.5 46 C3.04 44.62, 1.06 42.01, 0 34.5 M11.5 46 C4.68 48.05, -0.77 43.75, 0 34.5 M0 34.5 C0.09 29.03, 0.03 22.28, 0 11.5 M0 34.5 C0.57 26.69, 0.46 17.56, 0 11.5 M0 11.5 C-0.61 4.7, 3.13 0.89, 11.5 0 M0 11.5 C-1.97 6.02, 2.67 -1, 11.5 0" stroke="#087f5b" stroke-width="1" fill="none"></path></g><g transform="translate(385.8732201712464 891.7857027810713) rotate(0 66 12.5)"><text x="66" y="18" font-family="Virgil, Segoe UI Emoji" font-size="20px" fill="#000000" text-anchor="middle" style="white-space: pre;" direction="ltr">/var/lib/mysql</text></g><g stroke-linecap="round" transform="translate(867.6511234101791 881.2857282123864) rotate(0 100.33334350585938 23)"><path d="M11.69 1.83 L191.28 1.09 L195.03 2.6 L199.05 5.3 L202.17 39.13 L197.6 44.86 L190.23 44.9 L7.02 46.36 L2.84 44.62 L2.36 41.07 L0.01 10.19 L2.87 1.27 L12.94 -1.16" stroke="none" stroke-width="0" fill="#12b886"></path><path d="M11.5 0 M11.5 0 C82.9 -0.86, 150.18 -0.67, 189.17 0 M11.5 0 C49.65 0.13, 88.59 0.46, 189.17 0 M189.17 0 C198.55 -1.79, 199.74 2.94, 200.67 11.5 M189.17 0 C198.62 0.66, 198.99 2.8, 200.67 11.5 M200.67 11.5 C201.66 19.35, 201.68 21.98, 200.67 34.5 M200.67 11.5 C200.31 21.11, 200.73 28.59, 200.67 34.5 M200.67 34.5 C198.78 40.98, 198.54 47.89, 189.17 46 M200.67 34.5 C199.24 43.68, 197.96 45.02, 189.17 46 M189.17 46 C150.44 47.71, 115.17 48.1, 11.5 46 M189.17 46 C125.32 47.82, 60.06 46.17, 11.5 46 M11.5 46 C4.89 45.84, 0.73 43.95, 0 34.5 M11.5 46 C3.06 47.59, -0.47 43.9, 0 34.5 M0 34.5 C0.17 27.45, 1.56 19.75, 0 11.5 M0 34.5 C0.39 28.52, -0.46 21.92, 0 11.5 M0 11.5 C-0.7 4.73, 2.12 1.9, 11.5 0 M0 11.5 C-1.16 2.84, 3.81 -0.52, 11.5 0" stroke="#087f5b" stroke-width="1" fill="none"></path></g><g transform="translate(870.9844669160385 891.7857282123864) rotate(0 97 12.5)"><text x="97" y="18" font-family="Virgil, Segoe UI Emoji" font-size="20px" fill="#000000" text-anchor="middle" style="white-space: pre;" direction="ltr">/var/www/wordpress</text></g><g transform="translate(656.8869161749171 809.364198674192) rotate(0 51.70873645075653 17.469167719850162)"><text x="51.70873645075651" y="24.93833543970034" font-family="Virgil, Segoe UI Emoji" font-size="27.950668351760285px" fill="#000000" text-anchor="middle" style="white-space: pre;" direction="ltr">Volumes</text></g><g transform="translate(639.9289045787987 298.69745062731755) rotate(0 72 17.5)"><text x="72" y="25" font-family="Virgil, Segoe UI Emoji" font-size="27.950668351760285px" fill="#000000" text-anchor="middle" style="white-space: pre;" direction="ltr">Containers</text></g><g transform="translate(645.262492225283 10) rotate(0 69 17.5)"><text x="69" y="25" font-family="Virgil, Segoe UI Emoji" font-size="27.950668351760285px" fill="#000000" text-anchor="middle" style="white-space: pre;" direction="ltr">Entrypoint</text></g><g transform="translate(207.59585098993182 47.50005340576172) rotate(0 16.749980926513672 16.749980926513672)"><text x="16.749980926513672" y="27.499961853027344" font-family="Cascadia, Segoe UI Emoji" font-size="27.916634877522807px" fill="#000000" text-anchor="middle" style="white-space: pre;" direction="ltr">21</text></g><g transform="translate(1007.8336766560865 315.5595955621626) rotate(0 25 16.5)"><text x="25" y="27" font-family="Cascadia, Segoe UI Emoji" font-size="27.916634877522807px" fill="#000000" text-anchor="middle" style="white-space: pre;" direction="ltr">443</text></g><g transform="translate(998.5004247029617 435.80957648867627) rotate(0 33 16.5)"><text x="33" y="27" font-family="Cascadia, Segoe UI Emoji" font-size="27.916634877522807px" fill="#000000" text-anchor="middle" style="white-space: pre;" direction="ltr">9000</text></g><g transform="translate(747.167050679524 438.476263500395) rotate(0 33 16.5)"><text x="33" y="27" font-family="Cascadia, Segoe UI Emoji" font-size="27.916634877522807px" fill="#000000" text-anchor="middle" style="white-space: pre;" direction="ltr">8000</text></g><g transform="translate(481.8336664835606 437.5873373122437) rotate(0 33 16.5)"><text x="33" y="27" font-family="Cascadia, Segoe UI Emoji" font-size="27.916634877522807px" fill="#000000" text-anchor="middle" style="white-space: pre;" direction="ltr">7000</text></g><g transform="translate(1273.6672541300447 312.0873678298218) rotate(0 33 16.5)"><text x="33" y="27" font-family="Cascadia, Segoe UI Emoji" font-size="27.916634877522807px" fill="#000000" text-anchor="middle" style="white-space: pre;" direction="ltr">4040</text></g><g transform="translate(999.6671320597325 554.753932771228) rotate(0 33 16.5)"><text x="33" y="27" font-family="Cascadia, Segoe UI Emoji" font-size="27.916634877522807px" fill="#000000" text-anchor="middle" style="white-space: pre;" direction="ltr">6379</text></g><g transform="translate(1000.333758036295 675.4206197829467) rotate(0 33 16.5)"><text x="33" y="27" font-family="Cascadia, Segoe UI Emoji" font-size="27.916634877522807px" fill="#000000" text-anchor="middle" style="white-space: pre;" direction="ltr">3306</text></g><g stroke-linecap="round" transform="translate(867.6670405069981 721.5873678298218) rotate(0 100.33334350585938 23)"><path d="M0.01 -1.02 L200.73 -1.95 L200.4 45.45 L0.87 44.89" stroke="none" stroke-width="0" fill="#fd7e14"></path><path d="M1.34 1.04 C47 0.43, 92.69 0.89, 200.63 0.4 M-0.29 0.22 C59.08 2.05, 116.47 1.99, 199.87 0.45 M199.13 0.82 C200.33 12.18, 199.91 26.35, 200.31 44.51 M200.92 0.75 C200.01 18.11, 200.26 35.85, 201.24 45.23 M198.94 45.49 C142.92 44.69, 85.4 43.37, 1.65 45.25 M200.68 46.15 C152.9 44.57, 102.94 44.44, -0.38 46.31 M1.34 46.34 C-1.03 27.26, -0.44 10.37, 0.4 -0.48 M0.16 46.96 C0.34 36.8, 0.81 25.73, 0.35 0.99" stroke="#d9480f" stroke-width="1" fill="none"></path></g><g transform="translate(930.5003840128575 732.0873678298218) rotate(0 37.5 12.5)"><text x="37.5" y="18" font-family="Virgil, Segoe UI Emoji" font-size="20px" fill="#ffffff" text-anchor="middle" style="white-space: pre;" direction="ltr">mariadb</text></g><g stroke-linecap="round"><g transform="translate(965.333758036295 645.2541158766968) rotate(0 -0.6737541407346725 30.898442909121457)"><path d="M-1.63 -0.02 C0.24 19.92, -1.03 33.13, 0.28 61.82" stroke="#000000" stroke-width="2.5" fill="none" stroke-dasharray="8 10"></path></g></g><g stroke-linecap="round"><g transform="translate(965.333758036295 587.9207418532593) rotate(0 -1.5427316181103379 -26.66118995845318)"><path d="M-1.52 1.55 C0.62 -11.93, -1.32 -21.77, -2.52 -54.87" stroke="#000000" stroke-width="2.5" fill="none" stroke-dasharray="8 10"></path></g></g><g stroke-linecap="round"><g transform="translate(1076.0005060831697 497.2541158766968) rotate(0 13.446213025599718 -1.6102093011140832)"><path d="M-1.62 -0.5 C2.72 -4.11, 9.46 1.47, 27.18 -2.72 M1.86 -0.84 C11.2 -0.31, 19.19 -3.37, 28.51 -2.57" stroke="#000000" stroke-width="1" fill="none"></path></g></g><g stroke-linecap="round"><g transform="translate(1102.6671320597322 498.58742886497805) rotate(0 2.66668701171875 199.99999999999997)"><path d="M0 0 C1.93 144.73, 3.86 289.47, 5.33 400 M0 0 C1.81 135.38, 3.61 270.75, 5.33 400" stroke="#000000" stroke-width="1" fill="none"></path></g></g><g stroke-linecap="round"><g transform="translate(1108.0005060831697 899.9207418532592) rotate(0 -13.682136535644531 -0.8802292222468395)"><path d="M0.77 -2.23 C-8.44 -2.89, -19.48 -3.07, -23.54 -1.68 M1.61 -0.91 C-8.14 1.04, -10.9 2.1, -28.98 -0.84" stroke="#000000" stroke-width="1" fill="none"></path></g></g><g stroke-linecap="round"><g transform="translate(860.00050608317 757.2541158766967) rotate(0 -202.00003051757812 0)"><path d="M0 0 C-148.08 0, -296.16 0, -404 0 M0 0 C-125.08 0, -250.17 0, -404 0" stroke="#000000" stroke-width="1" fill="none"></path></g></g><g stroke-linecap="round"><g transform="translate(457.99624260763267 765.0102983833772) rotate(0 -1.9983076304197311 48.263704400509596)"><path d="M-1.74 -2.91 C2.5 30.9, -5.37 62.61, -1.33 97.77 M-0.24 1.02 C-3.09 36.36, -1.58 72.2, -3.76 99.44" stroke="#000000" stroke-width="1" fill="none"></path></g></g><g stroke-linecap="round"><g transform="translate(698.6671320597325 537.2541158766968) rotate(0 -0.6666717529296875 165.1666412353515)"><path d="M0 0 C-0.43 106.55, -0.86 213.11, -1.33 330.33 M0 0 C-0.44 109.19, -0.88 218.38, -1.33 330.33" stroke="#000000" stroke-width="1" fill="none"></path></g></g><g stroke-linecap="round"><g transform="translate(1233.3834146613867 146.15825729235257) rotate(0 2.4824683167040575 101.34809013381594)"><path d="M1.63 1.41 C1.9 35.16, 3.06 167.65, 3.33 201.28" stroke="#000000" stroke-width="2.5" fill="none" stroke-dasharray="8 10"></path></g></g><g stroke-linecap="round"><g transform="translate(1133.3337580362947 377.25405484154055) rotate(0 -28.340507932007313 -0.07285012663602686)"><path d="M2.68 -0.79 C-6.88 -0.93, -49.26 0.85, -59.36 0.64" stroke="#000000" stroke-width="2.5" fill="none" stroke-dasharray="8 10"></path></g></g><g stroke-linecap="round"><g transform="translate(707.47384747223 144.43150701536973) rotate(0 0.37007498216630097 103.2716347455978)"><path d="M-0.26 1.76 C-0.28 35.54, 0.8 171.02, 1 204.79" stroke="#000000" stroke-width="2.5" fill="none" stroke-dasharray="8 10"></path></g></g><g stroke-linecap="round"><g transform="translate(694.9059233153853 416.00338488086294) rotate(0 -116.80248974338174 28.062427542358638)"><path d="M0.57 0.08 C-38.27 9.59, -194.77 46.77, -234.18 56.04" stroke="#000000" stroke-width="2.5" fill="none" stroke-dasharray="8 10"></path></g></g><g stroke-linecap="round"><g transform="translate(711.7621815169846 416.84669638141224) rotate(0 125.9812271259724 26.34216739907861)"><path d="M1.1 -0.74 C43.19 7.81, 208.67 44.22, 250.87 53.43" stroke="#000000" stroke-width="2.5" fill="none" stroke-dasharray="8 10"></path></g></g><g stroke-linecap="round"><g transform="translate(958.667071024576 931.9208028884154) rotate(0 3.1314905687421515 22.804659129232164)"><path d="M2.73 -0.15 C3.36 7.21, 4.64 37.06, 5.5 44.91 M0.76 -2.7 C0.88 5.04, 2.23 40.8, 3.35 48.31" stroke="#000000" stroke-width="1" fill="none"></path></g></g><g stroke-linecap="round"><g transform="translate(964.000322977701 977.2541158766967) rotate(0 -411.5597033075986 1.1349422541618424)"><path d="M0 0 C-137.19 0.38, -685.93 1.89, -823.12 2.27 M0 0 C-137.19 0.38, -685.93 1.89, -823.12 2.27" stroke="#000000" stroke-width="1" fill="none"></path></g></g><g stroke-linecap="round"><g transform="translate(138.64444640974168 972.0159059406741) rotate(0 -0.1907138738722125 -413.1628333084285)"><path d="M0 0 C-0.06 -137.72, -0.32 -688.6, -0.38 -826.33 M0 0 C-0.06 -137.72, -0.32 -688.6, -0.38 -826.33" stroke="#000000" stroke-width="1" fill="none"></path></g></g><g transform="translate(308.8334223429358 305.7539709182009) rotate(0 82 12)"><text x="82" y="19" font-family="Cascadia, Segoe UI Emoji" font-size="19.82485047861702px" fill="#000000" text-anchor="middle" style="white-space: pre;" direction="ltr">Docker Network</text></g><g transform="translate(174.83324432373024 213.8701836248356) rotate(0 76 12)"><text x="76" y="19" font-family="Cascadia, Segoe UI Emoji" font-size="19.82485047861702px" fill="#000000" text-anchor="middle" style="white-space: pre;" direction="ltr">Computer Host</text></g><g stroke-linecap="round"><g transform="translate(705.9341004328585 417.43676745702294) rotate(0 -0.0930482513606421 26.674642329663044)"><path d="M-0.24 2.36 C0 11.31, 0.14 43.62, 0.01 50.99" stroke="#000000" stroke-width="2.5" fill="none" stroke-dasharray="8 10"></path></g></g><g stroke-linecap="round"><g transform="translate(717.3620157881596 734.4206951973831) rotate(0 -2.246199852093582 -97.37707779566686)"><path d="M-2.18 2.47 C-2.74 -30.07, -2.13 -163.19, -2.08 -197.22" stroke="#000000" stroke-width="2.5" fill="none" stroke-dasharray="8 10"></path></g></g><g stroke-linecap="round"><g transform="translate(717.3929762951086 736.0940778184381) rotate(0 70.74917819164693 1.0683033201843415)"><path d="M2.69 0.66 C25.72 0.84, 115.99 1.52, 138.8 1.48" stroke="#000000" stroke-width="2.5" fill="none" stroke-dasharray="8 10"></path></g></g></svg>